<?xml version="1.0" encoding="UTF-8" standalone="no"?>
<!-- Created with Inkscape (http://www.inkscape.org/) -->

<svg
   xmlns:dc="http://purl.org/dc/elements/1.1/"
   xmlns:cc="http://creativecommons.org/ns#"
   xmlns:rdf="http://www.w3.org/1999/02/22-rdf-syntax-ns#"
   xmlns:svg="http://www.w3.org/2000/svg"
   xmlns="http://www.w3.org/2000/svg"
   xmlns:sodipodi="http://sodipodi.sourceforge.net/DTD/sodipodi-0.dtd"
   xmlns:inkscape="http://www.inkscape.org/namespaces/inkscape"
   width="210mm"
   height="297mm"
   viewBox="0 0 210 297"
   version="1.1"
   id="svg8"
   inkscape:version="0.92.4 (5da689c313, 2019-01-14)"
   sodipodi:docname="icon-a-1.svg">
  <defs
     id="defs2" />
  <sodipodi:namedview
     id="base"
     pagecolor="#ffffff"
     bordercolor="#666666"
     borderopacity="1.0"
     inkscape:pageopacity="0.0"
     inkscape:pageshadow="2"
     inkscape:zoom="0.7"
     inkscape:cx="403.83015"
     inkscape:cy="721.37025"
     inkscape:document-units="mm"
     inkscape:current-layer="layer1"
     showgrid="false"
     inkscape:window-width="1920"
     inkscape:window-height="1017"
     inkscape:window-x="-8"
     inkscape:window-y="-8"
     inkscape:window-maximized="1" />
  <metadata
     id="metadata5">
    <rdf:RDF>
      <cc:Work
         rdf:about="">
        <dc:format>image/svg+xml</dc:format>
        <dc:type
           rdf:resource="http://purl.org/dc/dcmitype/StillImage" />
        <dc:title></dc:title>
      </cc:Work>
    </rdf:RDF>
  </metadata>
  <g
     inkscape:label="Layer 1"
     inkscape:groupmode="layer"
     id="layer1">
    <g
       id="g21"
       transform="translate(7.5595323,-1.889881)">
      <path
         style="fill:#fdfefe;stroke-width:0.08466667"
         d="M 52.051857,145.05357 V 92.983566 h 45.465999 45.466004 v 52.070004 52.07 H 97.517856 52.051857 Z"
         id="path27"
         inkscape:connector-curvature="0" />
      <path
         style="fill:#06a197;stroke-width:0.08466667"
         d="m 65.233062,195.38962 c -5.007031,-0.71477 -8.701341,-3.45939 -10.041512,-7.46013 -0.549601,-1.6407 -0.523612,-0.52031 -0.49277,-21.24359 0.03085,-20.7281 -0.01562,-18.95106 0.54021,-20.65867 1.764196,-5.41991 7.453174,-9.42326 14.258286,-10.03359 0.845948,-0.0759 3.209347,-0.0517 11.599333,0.11885 5.795303,0.11777 11.004167,0.23383 11.575253,0.2579 1.608268,0.0678 2.5523,0.44244 3.381418,1.34193 1.037926,1.12602 1.256757,2.8787 0.535563,4.28947 -0.279855,0.54744 -1.031083,1.29576 -1.561556,1.55551 -1.051303,0.51477 -0.474891,0.48601 -12.326097,0.61491 -5.983817,0.0651 -11.273433,0.15591 -11.754704,0.20185 -2.423675,0.23133 -4.386426,1.61257 -5.065257,3.56455 l -0.199614,0.57399 0.02195,17.68031 0.02195,17.68032 0.271662,0.57352 c 0.509777,1.07621 1.629126,1.91716 2.967405,2.22938 1.225921,0.286 1.433877,0.25588 15.472266,-2.24104 7.1247,-1.26723 13.144499,-2.36504 13.377333,-2.43957 2.012659,-0.6443 3.564719,-2.3567 3.861709,-4.26062 0.0741,-0.47519 0.0857,-3.77951 0.046,-13.12994 -0.0418,-9.85746 -0.0309,-12.52294 0.0516,-12.62758 0.0825,-0.10456 0.87445,-0.21514 3.74125,-0.52239 2.00013,-0.21436 3.66782,-0.35853 3.70597,-0.32038 0.0382,0.0382 0.0576,6.01025 0.0433,13.27133 -0.029,14.69889 0.0222,13.41796 -0.61298,15.33084 -1.01162,3.04673 -3.35911,5.97344 -6.3072,7.86343 -0.93239,0.59774 -2.528328,1.34797 -3.594815,1.68987 -0.840563,0.26948 -25.488546,5.50802 -28.155187,5.98395 -1.276538,0.22783 -4.141771,0.2896 -5.360795,0.11559 z M 120.55834,159.271 c -1.47422,-0.28973 -2.39529,-1.65488 -2.27428,-3.37078 0.1076,-1.52572 0.99362,-2.71831 2.33357,-3.14099 0.45728,-0.14424 1.32827,-0.21301 5.92387,-0.46774 2.96327,-0.16424 5.54143,-0.33945 5.72923,-0.38934 0.84802,-0.22528 1.84135,-1.0564 2.2319,-1.86743 0.45665,-0.94831 0.43789,-0.34146 0.43789,-14.16749 0,-11.05535 -0.0171,-12.85711 -0.12607,-13.27546 -0.3164,-1.21472 -1.11194,-2.22603 -2.12346,-2.69938 -0.55708,-0.26068 -0.61308,-0.26806 -9.92919,-1.30681 -5.15292,-0.57456 -9.60306,-1.04556 -9.88919,-1.04666 -1.44264,-0.006 -2.79603,0.91607 -3.35386,2.28398 l -0.18989,0.46567 -0.0225,13.35931 c -0.0177,10.5061 -0.0448,13.36755 -0.127,13.39787 -0.0575,0.0212 -1.74005,0.17308 -3.739,0.3375 -2.90982,0.23935 -3.64838,0.27745 -3.70437,0.19113 -0.0385,-0.0593 -0.0579,-6.47051 -0.0432,-14.24715 0.0293,-15.50638 -0.001,-14.57409 0.53076,-16.17404 1.15793,-3.48213 4.06777,-5.96143 7.73624,-6.59158 1.66474,-0.28596 1.91107,-0.26112 12.50241,1.26081 5.34905,0.76864 10.01153,1.4758 10.36107,1.57146 1.50975,0.41319 3.04727,1.34443 4.32104,2.61717 1.66253,1.66117 2.72911,3.71862 3.1831,6.14018 0.15087,0.80475 0.15873,1.49641 0.15873,13.97 v 13.12334 l -0.18796,0.84666 c -0.52057,2.34492 -1.43051,4.07416 -2.943,5.59282 -1.58859,1.59508 -3.46556,2.51323 -5.6025,2.74054 -1.20897,0.1286 -10.55384,0.93935 -10.70058,0.92837 -0.0682,-0.005 -0.29039,-0.042 -0.49381,-0.082 z M 80.577047,129.56269 c -5.079223,-0.25593 -5.336348,-0.2887 -6.105222,-0.77797 -0.509718,-0.32436 -0.969887,-0.83522 -1.199341,-1.33146 -0.178477,-0.38599 -0.180961,-0.46108 -0.180961,-5.47136 v -5.08 l 0.196252,-0.39845 c 0.372162,-0.75559 1.288397,-1.32526 2.2473,-1.39725 0.771404,-0.0579 11.143615,1.04386 11.654505,1.23798 0.822094,0.31237 1.470579,0.90935 1.847438,1.70072 0.125398,0.26332 0.143859,0.81368 0.165734,4.94072 0.02783,5.25014 0.02958,5.23213 -0.576264,5.92041 -0.194631,0.22111 -0.552859,0.49293 -0.827142,0.62762 -0.441069,0.21659 -0.573602,0.23885 -1.499823,0.25189 -0.5588,0.008 -3.133914,-0.0924 -5.722476,-0.22285 z m 42.052663,-22.82163 c -2.02952,-0.34649 -3.78553,-0.68836 -3.97933,-0.77473 -0.48497,-0.21613 -1.041,-0.74923 -1.30693,-1.25303 l -0.22526,-0.42673 -0.0261,-4.23334 c -0.0273,-4.418119 -0.0119,-4.651999 0.33744,-5.12446 0.26855,-0.363243 0.79228,-0.613973 1.28769,-0.616479 0.44528,-0.0023 7.46773,1.546981 7.97725,1.759875 0.43364,0.181186 0.99495,0.752521 1.26684,1.289473 l 0.24825,0.49026 0.0251,3.922881 c 0.0275,4.29532 0.005,4.54515 -0.45819,5.04032 -0.29085,0.31105 -0.83946,0.55974 -1.21794,0.55209 -0.16298,-0.003 -1.93094,-0.28505 -3.92881,-0.62613 z"
         id="path25"
         inkscape:connector-curvature="0" />
      <path
         style="fill:#184ea2;stroke-width:0.08466667"
         d="m 120.24208,159.15749 c -1.41021,-0.44138 -2.22018,-2.07237 -1.86506,-3.7556 0.29649,-1.40531 1.21268,-2.38282 2.51619,-2.68459 0.35171,-0.0814 2.28772,-0.21573 5.49598,-0.38125 2.72415,-0.14055 5.19146,-0.29091 5.48291,-0.33415 0.77134,-0.11441 1.3926,-0.43204 1.95122,-0.99758 0.50305,-0.50928 0.88071,-1.17525 1.02747,-1.8118 0.0557,-0.24147 0.086,-4.90045 0.0867,-13.32529 8.6e-4,-10.55089 -0.02,-13.03253 -0.11219,-13.37733 -0.3431,-1.28252 -1.32106,-2.37473 -2.4982,-2.79005 -0.21479,-0.0758 -4.13923,-0.54486 -9.56456,-1.14324 -5.06017,-0.5581 -9.35758,-1.03354 -9.5498,-1.05652 -0.48658,-0.0582 -1.30543,0.0879 -1.85489,0.3309 -0.53215,0.23534 -1.29631,0.9211 -1.59448,1.43089 -0.50375,0.86128 -0.47681,0.0444 -0.47681,14.45672 0,10.45714 -0.0219,13.20182 -0.10583,13.25614 -0.11333,0.0733 -7.18789,0.68525 -7.33925,0.6348 -0.0634,-0.0211 -0.0902,-4.2019 -0.0899,-14.05653 2.5e-4,-12.01005 0.0185,-14.13808 0.12628,-14.80297 0.57215,-3.5277 2.8923,-6.39702 6.17119,-7.63188 1.26006,-0.47455 2.19238,-0.63855 3.65052,-0.64215 1.20251,-0.003 1.77623,0.07 10.795,1.37258 6.03947,0.87229 9.80385,1.45281 10.287,1.5864 3.13341,0.86632 5.8643,3.53663 7.01142,6.85585 0.65549,1.89668 0.60858,0.68308 0.60858,15.74573 0,12.82785 -0.007,13.4959 -0.15804,14.18166 -0.4819,2.19447 -1.42095,3.92482 -2.96674,5.46674 -1.5008,1.49705 -3.03745,2.30539 -4.98225,2.62088 -1.00123,0.16242 -10.33411,0.97356 -11.11534,0.96605 -0.32429,-0.003 -0.74598,-0.0546 -0.93707,-0.11441 z m 2.16778,-52.48742 c -2.1954,-0.3823 -3.63968,-0.67315 -3.84953,-0.77521 -0.47805,-0.2325 -0.9576,-0.74413 -1.21795,-1.29943 l -0.22419,-0.4782 -0.0251,-4.064 c -0.0173,-2.799639 0.004,-4.182531 0.0699,-4.444997 0.1884,-0.755967 0.8194,-1.264122 1.57471,-1.268141 0.19222,-0.001 2.03942,0.379237 4.1049,0.845021 4.14462,0.934652 4.26132,0.977091 4.81926,1.7525 0.50764,0.705502 0.50552,0.68408 0.50349,5.094767 -0.002,4.53817 0.005,4.48248 -0.6385,4.97335 -0.53322,0.40671 -1.04771,0.37296 -5.11697,-0.33566 z"
         id="path23"
         inkscape:connector-curvature="0" />
    </g>
  </g>
</svg>
