<?xml version="1.0" encoding="utf-8"?>
<!-- Generator: Adobe Illustrator 23.0.1, SVG Export Plug-In . SVG Version: 6.00 Build 0)  -->
<svg version="1.1" id="Layer_1" xmlns="http://www.w3.org/2000/svg" xmlns:xlink="http://www.w3.org/1999/xlink" x="0px" y="0px"
	 viewBox="0 0 800 700" style="enable-background:new 0 0 800 700;" xml:space="preserve">
<style type="text/css">
	.st0{fill:#184FA3;}
	.st1{fill:#04A297;}
	.st2{fill-rule:evenodd;clip-rule:evenodd;fill:#04A297;}
	.st3{fill-rule:evenodd;clip-rule:evenodd;fill:#184FA3;}
</style>
<g>
	<g>
		<path class="st0" d="M637.74,364.06l14.83-0.81c2.71-0.15,4.88-2.65,4.88-5.58V321.2c0-2.93-2.16-5.55-4.88-5.85l-26.95-2.98
			c-3.31-0.37-6.04,2.02-6.04,5.34l0.01,38.2l-11.14,0.92l-0.01-40.14c0-9.45,7.92-15.97,17.19-14.64l26.95,3.87
			c7.34,1.05,13.03,8.21,13.03,16.04v35.43c0,7.83-5.69,14.67-13.03,15.31l-14.83,1.3C631.21,374.56,631.21,364.42,637.74,364.06"/>
		<path class="st1" d="M619.6,361.83l0.01,36.72c0,9.13-7.76,18.16-17.87,20.29l-37.87,7.95c-13.32,2.8-24.82-4.04-24.82-15.45
			v-51.67c0-11.41,11.51-20.42,24.82-20.15l31.54,0.66c8.11,0.17,8.11,11.21,0,11.31l-31.54,0.37c-4.74,0.05-8.67,3.33-8.67,7.31
			v49.59c0,3.98,3.93,6.52,8.67,5.68l37.87-6.72c3.75-0.66,6.72-3.98,6.72-7.41l-0.01-37.28L619.6,361.83z"/>
		<path class="st2" d="M566.2,312.24c0-2.18,2.1-3.72,4.65-3.46l14.93,1.56c2.32,0.24,4.18,2.09,4.18,4.13v12.51
			c0,2.04-1.86,3.6-4.18,3.5l-14.93-0.71c-2.55-0.12-4.65-1.99-4.65-4.16V312.24z"/>
		<path class="st3" d="M631.09,280.72c0-1.8,1.43-2.94,3.19-2.54l10.33,2.32c1.62,0.37,2.92,2.04,2.92,3.74v10.47
			c0,1.7-1.3,2.87-2.92,2.6l-10.33-1.74c-1.75-0.3-3.19-2-3.19-3.8V280.72z"/>
	</g>
	<path class="st0" d="M163.37,341.98c-7.61,0-14.18-2.61-19.54-7.75c-5.37-5.16-8.09-11.85-8.09-19.88c0-7.97,2.72-14.64,8.09-19.83
		c5.35-5.18,11.93-7.8,19.54-7.8c5.94,0,11.33,1.69,16.03,5.02c4.72,3.35,7.94,7.86,9.56,13.43l0.47,1.6l-13.15,3.81l-0.44-1.65
		c-0.83-3.14-2.31-5.43-4.51-6.99c-2.24-1.59-4.84-2.37-7.95-2.37c-4.13,0-7.45,1.34-10.16,4.11c-2.71,2.78-4.03,6.27-4.03,10.68
		c0,4.54,1.3,8.06,3.98,10.77c2.67,2.7,6.01,4.01,10.21,4.01c6.6,0,10.81-3,12.89-9.17l0.5-1.47l12.62,3.29l-0.41,1.61
		c-1.42,5.59-4.55,10.14-9.32,13.53C174.92,340.27,169.44,341.98,163.37,341.98z"/>
	<path class="st0" d="M223.29,341.78c-7.8,0-14.51-2.59-19.92-7.69c-5.44-5.13-8.2-11.77-8.2-19.75c0-7.97,2.76-14.6,8.21-19.7
		c5.42-5.07,12.12-7.63,19.92-7.63c7.81,0,14.48,2.57,19.83,7.64c5.38,5.1,8.1,11.72,8.1,19.69s-2.74,14.61-8.15,19.74
		C237.68,339.19,231.03,341.78,223.29,341.78z M223.29,299.17c-4.08,0-7.47,1.38-10.38,4.23c-2.9,2.84-4.31,6.42-4.31,10.95
		s1.41,8.11,4.31,10.95c2.91,2.85,6.3,4.23,10.38,4.23c3.95,0,7.3-1.39,10.24-4.24c2.93-2.84,4.35-6.42,4.35-10.94
		s-1.42-8.11-4.35-10.94C230.59,300.55,227.24,299.17,223.29,299.17z"/>
	<path class="st0" d="M358.33,340.59v-29.32c0-3.64-0.92-6.46-2.81-8.61c-1.83-2.09-4.19-3.1-7.22-3.1c-4.08,0-7.18,1.33-9.48,4.06
		c-2.34,2.78-3.52,7.02-3.52,12.6v24.36h-13.64V288.1h13.64v3.71c4.11-3.39,9.26-5.1,15.38-5.1c6.33,0,11.54,2.13,15.49,6.32
		c3.92,4.17,5.9,9.6,5.9,16.15v31.4H358.33z"/>
	<path class="st0" d="M465.14,341.98c-7.61,0-14.18-2.61-19.54-7.75c-5.37-5.16-8.09-11.85-8.09-19.88c0-7.97,2.72-14.64,8.09-19.83
		c5.35-5.18,11.93-7.8,19.54-7.8c5.94,0,11.33,1.69,16.03,5.02c4.72,3.35,7.94,7.87,9.56,13.43l0.47,1.6l-13.15,3.81l-0.44-1.65
		c-0.83-3.14-2.3-5.43-4.51-6.99c-2.24-1.59-4.85-2.37-7.96-2.37c-4.13,0-7.45,1.34-10.15,4.11c-2.72,2.77-4.04,6.27-4.04,10.68
		c0,4.54,1.3,8.06,3.98,10.77c2.67,2.7,6.01,4.01,10.21,4.01c6.6,0,10.81-3,12.89-9.17l0.49-1.47l12.62,3.29l-0.41,1.61
		c-1.42,5.59-4.55,10.14-9.32,13.54C476.69,340.27,471.22,341.98,465.14,341.98z"/>
	<path class="st0" d="M524.81,341.98c-5.91,0-10.66-1.71-14.14-5.08c-3.49-3.38-5.26-8.34-5.26-14.72v-22.22h-10.6V288.1h10.6
		v-15.26h13.64v15.26h16.85v11.86h-16.85v21.52c0,2.52,0.58,4.42,1.73,5.65c1.14,1.21,2.68,1.8,4.73,1.8c2.5,0,4.99-0.81,7.41-2.4
		l1.75-1.16l4.38,11.9l-1.19,0.71C533.38,340.63,528.99,341.98,524.81,341.98z"/>
	<path class="st1" d="M294.08,302.66c1.89,2.15,2.8,4.96,2.8,8.61v94.9h13.74v-96.98c0-6.55-1.99-11.99-5.9-16.15
		c-3.94-4.2-9.16-6.32-15.49-6.32c-6.12,0-11.27,1.71-15.38,5.1v-3.71h-13.64v52.49h13.64v-24.36c0-5.58,1.19-9.82,3.52-12.6
		c2.3-2.73,5.4-4.06,9.48-4.06C289.89,299.56,292.25,300.58,294.08,302.66z"/>
	<path class="st1" d="M324.38,428.42c-5.61,0-11.42-0.01-16.23-0.02c-3.39-0.01-9.62-0.01-9.62-0.01l-1.67,0l-0.03-1.67v-12.04
		l2.64-0.01c4.11,0.02,24.36,0.05,34.68,0.05c2.46,0,4.36,0,5.34-0.01c1.67-0.01,3.12-0.12,4.44-0.35c4.57-0.77,7.42-4.03,7.61-8.73
		c0.02-0.53,0.02-1.06,0.02-1.62c-0.22,0-2.18,0.02-2.94,0.02c-0.95,0-1.9-0.01-2.85-0.04c-0.77-0.02-1.54-0.03-2.31-0.04
		c-2.37-0.03-4.82-0.06-7.22-0.53c-10.45-2.08-17.81-7.56-18.33-18.6c-0.28-6.03-0.34-9.5,0.31-15.17
		c1.38-12.06,10.95-20.48,23.28-20.48c0.48,0,0.97,0.01,1.46,0.04c13.17,0.72,22.12,9.56,22.8,22.51c0.28,5.38,0.25,6.41,0.22,11.03
		c-0.01,2.13-0.03,4.35-0.01,6.78v0.59l5.74,0c2.43,0,4.86-0.01,7.3-0.02c5.1-0.03,8.64-2.38,10.5-6.98
		c0.97-2.39,1.55-1.69,1.65-4.07c0.18-4.64,0.15-9.39,0.13-13.98c-0.01-1.88-0.02-3.75-0.02-5.62v-3.78l5.84-0.01
		c1.96,0,3.89,0.01,5.82,0.08c1.66,0.06,2.35,2.3,2.36,3.22c0.05,5.54,0.04,11.07,0.03,16.61l0,0.79c0,4.13,0.51,3.88,1.68,6.66
		c1.98,4.71,5.39,7.03,10.45,7.07c0,0,1.88,0.02,2.4,0.02c1.14,0,2.48-0.03,3.79-0.24c6.05-0.96,10.33-2.56,10.41-8.68
		c0.07-5.04,0.06-10.16,0.05-15.12c0-2.21-0.01-10.31-0.01-10.31h14.17v1.67c0,2-0.01,3.99-0.03,5.96
		c-0.04,4.87-0.07,9.46,0.1,14.14c0.12,3.32,0.65,2.98,1.58,5.57c1.6,4.5,5.05,6.85,10.24,6.99l0.66,0.02
		c0.79,0.02,1.58,0.04,2.37,0.04c1.19,0,2.15-0.05,3.02-0.17c6.2-0.82,10.61-2.37,10.73-8.54c0.14-7.03,0.12-14.19,0.11-21.11
		l-0.01-4.56h14.14l0,2.75c0.01,6.68,0.03,13.58-0.04,20.37c-0.07,6.62-1.83,9.17-5.25,14.16c-4.54,6.62-11.07,10.28-19.43,10.86
		c-1.53,0.11-2.89,0.16-4.16,0.16c-3.49,0-6.54-0.4-9.31-1.23c-4.7-1.4-8.56-3.97-11.75-7.8c-5.03,6.05-11.93,8.93-21.5,9l-0.33,0
		c-9.08,0-16.03-2.93-21.18-8.95c-4.31,5.75-10.38,8.74-18.07,8.89c-2,0.04-4,0.05-6,0.05c-1.61,0-3.22-0.01-4.82-0.02
		c-1.11,0-2.21-0.01-3.32-0.01c-0.05,0.42-0.1,0.83-0.15,1.25c-0.22,1.92-0.45,3.91-0.87,5.84c-2.25,10.37-9.88,16.79-20.4,17.17
		C341.87,428.38,335.25,428.42,324.38,428.42z M342.04,363.24c-5.46,0-9.55,3.52-9.94,8.56c-0.38,4.88-0.38,7.69,0.01,13.06
		c0.33,4.46,3.79,4.66,8.25,5.07c1.46,0.14,3.04,0.2,4.97,0.2c1.34,0,2.7-0.03,4.07-0.06c0.88-0.02,1.77-0.04,2.66-0.05
		c0-0.93,0-1.82,0-2.7c-0.01-2.09-0.01-0.63-0.01-2.43c0.01-4.2,0.02-7.83-0.21-12.6c-0.24-4.99-4.45-8.96-9.6-9.04L342.04,363.24z"
		/>
	<path class="st0" d="M418.26,322.63c-2.58,4.75-6.73,7.09-12.68,7.09c-3.36,0-6.23-1.15-8.78-3.52c-2.16-2.01-3.52-4.54-4.16-7.72
		h39.57l0-5.3c-0.28-7.67-2.96-14.07-7.98-19.01c-5.03-4.96-11.17-7.47-18.27-7.47c-7.55,0-14.03,2.61-19.26,7.76
		c-5.23,5.16-7.88,11.88-7.88,19.97c0,8.03,2.65,14.69,7.88,19.82c5.22,5.12,11.57,7.71,18.86,7.71c5.84,0,11.03-1.4,15.41-4.17
		c4.28-2.71,7.52-6.71,9.63-11.88L418.26,322.63z M397.44,302.02c2.64-1.92,5.43-2.85,8.53-2.85c3.14,0,5.74,0.88,7.97,2.7
		c1.75,1.43,3.05,3.43,3.86,5.96h-24.63C393.98,305.41,395.39,303.5,397.44,302.02z"/>
</g>
</svg>
