<?xml version="1.0" encoding="UTF-8" standalone="no"?>
<!-- Created with Inkscape (http://www.inkscape.org/) -->

<svg
   xmlns:dc="http://purl.org/dc/elements/1.1/"
   xmlns:cc="http://creativecommons.org/ns#"
   xmlns:rdf="http://www.w3.org/1999/02/22-rdf-syntax-ns#"
   xmlns:svg="http://www.w3.org/2000/svg"
   xmlns="http://www.w3.org/2000/svg"
   xmlns:sodipodi="http://sodipodi.sourceforge.net/DTD/sodipodi-0.dtd"
   xmlns:inkscape="http://www.inkscape.org/namespaces/inkscape"
   width="210mm"
   height="297mm"
   viewBox="0 0 210 297"
   version="1.1"
   id="svg8"
   inkscape:version="0.92.4 (5da689c313, 2019-01-14)"
   sodipodi:docname="Logo_20-03-2022-1.svg">
  <defs
     id="defs2" />
  <sodipodi:namedview
     id="base"
     pagecolor="#ffffff"
     bordercolor="#666666"
     borderopacity="1.0"
     inkscape:pageopacity="0.0"
     inkscape:pageshadow="2"
     inkscape:zoom="1.979899"
     inkscape:cx="593.37451"
     inkscape:cy="710.98257"
     inkscape:document-units="mm"
     inkscape:current-layer="layer1"
     showgrid="false"
     inkscape:window-width="1920"
     inkscape:window-height="1017"
     inkscape:window-x="-8"
     inkscape:window-y="-8"
     inkscape:window-maximized="1" />
  <metadata
     id="metadata5">
    <rdf:RDF>
      <cc:Work
         rdf:about="">
        <dc:format>image/svg+xml</dc:format>
        <dc:type
           rdf:resource="http://purl.org/dc/dcmitype/StillImage" />
        <dc:title></dc:title>
      </cc:Work>
    </rdf:RDF>
  </metadata>
  <g
     inkscape:label="Layer 1"
     inkscape:groupmode="layer"
     id="layer1">
    <g
       id="g21"
       transform="translate(14.699822,-29.934187)">
      <path
         style="fill:#f8fafb;stroke-width:0.08466667"
         d="m 81.35862,141.2738 v -8.84767 h 25.23067 25.23066 v 8.84767 8.84766 H 106.58929 81.35862 Z"
         id="path27"
         inkscape:connector-curvature="0" />
      <path
         style="fill:#1da29d;stroke-width:0.08466667"
         d="m 97.226389,147.97415 c -0.02434,-0.0634 -0.03267,-0.33965 -0.01851,-0.61383 l 0.02574,-0.49852 2.18764,-0.0423 2.187641,-0.0423 0.20419,-0.23755 c 0.11231,-0.13066 0.2042,-0.30991 0.2042,-0.39834 0,-0.1783 -0.16664,-0.22062 -1.10316,-0.28014 -0.931976,-0.0592 -1.580124,-0.52018 -1.782939,-1.26799 -0.131949,-0.48651 -0.05561,-1.87304 0.126823,-2.30331 0.672656,-1.58653 3.116076,-1.64081 3.828326,-0.0851 0.15804,0.34521 0.21562,0.66001 0.26494,1.44839 l 0.063,1.00732 0.68503,-0.003 c 1.19797,-0.005 1.46905,-0.37437 1.47211,-2.00823 l 0.002,-0.99483 h 0.54735 c 0.69382,0 0.72265,0.0489 0.72265,1.22547 0,0.73134 0.0315,0.95962 0.16961,1.2304 0.26254,0.51464 0.7111,0.66737 1.48695,0.5063 0.71779,-0.14901 0.74924,-0.21488 0.79877,-1.67338 l 0.0423,-1.24646 0.61384,-0.0249 0.61383,-0.0249 0.004,0.95621 c 0.005,1.33997 0.19775,1.81558 0.81786,2.02023 0.42217,0.13933 1.16066,0.0289 1.44602,-0.21619 0.22689,-0.19489 0.23065,-0.215 0.2724,-1.45406 l 0.0423,-1.25644 h 0.59267 0.59267 v 1.31379 1.3138 l -0.3457,0.50654 c -0.21356,0.31292 -0.50217,0.60362 -0.75506,0.76054 -0.36506,0.2265 -0.49576,0.2572 -1.20748,0.28361 -0.88138,0.0327 -1.35007,-0.0889 -1.79943,-0.46707 l -0.24865,-0.20922 -0.29817,0.22742 c -0.44381,0.33851 -0.85521,0.45374 -1.63473,0.45787 -0.75009,0.004 -1.12355,-0.10441 -1.59268,-0.46223 l -0.27102,-0.20672 -0.31082,0.24701 c -0.42369,0.3367 -0.72344,0.42104 -1.62524,0.45729 -0.86303,0.0347 -0.95982,0.0683 -0.96049,0.3332 -0.002,0.7206 -0.59316,1.5008 -1.29558,1.7094 -0.59758,0.17746 -4.697385,0.1876 -4.764851,0.0118 z m 4.773961,-3.37295 c 0.16351,-0.16351 0.13053,-1.40654 -0.0467,-1.75989 -0.27568,-0.54965 -0.85861,-0.66622 -1.31087,-0.26213 -0.26454,0.23637 -0.27769,0.27757 -0.30384,0.9525 -0.0321,0.82823 0.05,0.99288 0.54225,1.08772 0.52191,0.10056 1.0083,0.0926 1.11915,-0.0182 z m 17.59841,3.2801 c -0.17904,-0.0638 -0.42078,-0.20504 -0.53721,-0.31379 -0.44298,-0.41375 -0.4496,-0.46199 -0.4496,-3.27833 0,-1.64382 0.0336,-2.71236 0.0899,-2.86171 0.12098,-0.32089 0.5551,-0.76312 0.96848,-0.98659 0.31809,-0.17196 0.45259,-0.18308 2.21369,-0.18308 1.72506,0 1.88927,0.0129 2.05316,0.16129 0.17872,0.1618 0.22958,0.43513 0.11335,0.6092 -0.16087,0.24092 -0.47463,0.28784 -1.92487,0.28784 -1.50506,0 -1.74209,0.04 -1.96581,0.33133 -0.0752,0.098 -0.10387,0.7705 -0.10583,2.48384 -0.003,2.23853 0.005,2.35749 0.16664,2.51883 0.0931,0.0931 0.25872,0.16933 0.36796,0.16933 0.30859,0 3.45721,-0.5793 3.70589,-0.68183 0.3732,-0.15388 0.41261,-0.349 0.43491,-2.15351 l 0.0209,-1.69235 0.41795,-0.0597 c 0.22988,-0.0329 0.44895,-0.0406 0.48684,-0.0172 0.0379,0.0234 0.068,0.83089 0.067,1.7944 -0.002,2.01028 -0.0525,2.21494 -0.67629,2.7489 -0.45127,0.38627 -0.48522,0.39698 -2.73791,0.86352 -2.00106,0.41443 -2.21686,0.4351 -2.70913,0.25959 z m -22.302364,-1.83726 c -0.08092,-0.0809 -0.105109,-1.08624 -0.105109,-4.36805 0,-4.55468 -0.006,-4.62383 -0.418644,-4.84468 -0.276236,-0.14784 -0.808459,-0.10296 -1.05214,0.0887 -0.392887,0.30904 -0.431921,0.46801 -0.476549,1.94077 l -0.04233,1.397 h -0.592666 -0.592667 v -2.286 -2.286 l 0.484628,-0.0253 c 0.266545,-0.0139 0.563804,0.017 0.660577,0.0688 0.135431,0.0725 0.274201,0.0615 0.6026,-0.0476 0.991647,-0.32937 1.943983,-0.02 2.417348,0.78531 l 0.237514,0.40406 v 4.61433 4.61434 l -0.508724,0.0247 c -0.322721,0.0157 -0.547155,-0.0138 -0.613834,-0.0804 z M 126.951,143.06273 c -0.1353,-0.20649 -0.13588,-0.23782 -0.008,-0.43292 0.16155,-0.24656 0.29275,-0.28182 1.18117,-0.31748 0.53767,-0.0216 0.68716,-0.0576 0.78317,-0.18895 0.0926,-0.12661 0.11866,-0.54145 0.11866,-1.88733 0,-0.95526 -0.0367,-1.79369 -0.0823,-1.87886 -0.11625,-0.21722 -0.18563,-0.23411 -1.62198,-0.39493 l -1.28674,-0.14407 -0.15548,0.19202 c -0.1395,0.17227 -0.15549,0.36937 -0.15549,1.91669 v 1.72467 l -0.19995,0.0502 c -0.10997,0.0276 -0.32905,0.0378 -0.48683,0.0228 l -0.28688,-0.0274 -0.0219,-1.905 c -0.0246,-2.13799 0.0134,-2.31894 0.56357,-2.68648 0.36496,-0.2438 0.80411,-0.24812 2.33637,-0.0229 1.4833,0.21797 1.74223,0.35036 2.02938,1.03763 0.10354,0.24779 0.13023,0.68596 0.13023,2.13746 0,1.95261 -0.0412,2.19537 -0.43358,2.55552 -0.29719,0.27277 -0.55961,0.34737 -1.45248,0.41291 -0.80378,0.059 -0.80527,0.0588 -0.95089,-0.1635 z M 84.740104,140.3539 c -0.453811,-0.12238 -0.787197,-0.34511 -1.199248,-0.8012 -0.386554,-0.42787 -0.525924,-0.84606 -0.528862,-1.58689 -0.002,-0.50196 0.03889,-0.67935 0.25313,-1.09825 0.294687,-0.57622 0.873967,-1.06622 1.451692,-1.22798 0.470756,-0.1318 1.425136,-0.0663 1.791037,0.1229 0.637443,0.32964 1.303666,1.18404 1.1782,1.511 -0.04995,0.13016 -0.94057,0.40355 -1.060877,0.32566 -0.04304,-0.0279 -0.141373,-0.17386 -0.218509,-0.32441 -0.38619,-0.75376 -1.658387,-0.69285 -2.033367,0.0974 -0.68272,1.43873 1.175234,2.6554 2.069702,1.35534 0.179818,-0.26136 0.30743,-0.36897 0.404345,-0.34096 0.07788,0.0225 0.303531,0.0828 0.50144,0.13388 0.44615,0.11527 0.46996,0.30298 0.110359,0.87001 -0.545046,0.85945 -1.651298,1.25147 -2.719042,0.96354 z m 5.452954,0.0274 c -0.518596,-0.1026 -0.973346,-0.36221 -1.334274,-0.76171 -0.464064,-0.51367 -0.589018,-0.861 -0.592787,-1.64778 -0.0028,-0.59469 0.0273,-0.73291 0.247102,-1.13278 1.002542,-1.82388 3.907217,-1.62605 4.567259,0.31106 0.473128,1.38856 -0.288974,2.82423 -1.69337,3.19003 -0.541621,0.14108 -0.667123,0.14541 -1.19393,0.0412 z m 1.120932,-1.23317 c 0.5587,-0.26512 0.827079,-1.01386 0.582507,-1.62511 -0.284053,-0.70991 -0.921667,-1.00222 -1.6115,-0.73877 -0.516728,0.19734 -0.798485,0.61607 -0.79806,1.18604 7.45e-4,0.99892 0.934948,1.60117 1.827053,1.17784 z m 14.7596,1.19492 c -0.52183,-0.16761 -1.15561,-0.74106 -1.40068,-1.26735 -0.2414,-0.51839 -0.27039,-1.41832 -0.0651,-2.02079 0.15853,-0.46526 0.69514,-1.04979 1.17715,-1.28226 0.48393,-0.23341 1.38602,-0.27338 1.88332,-0.0835 0.85447,0.32633 1.4558,1.19192 1.48737,2.14104 l 0.016,0.48024 -1.64866,0.0231 c -0.90676,0.0127 -1.68247,0.0569 -1.7238,0.0982 -0.1052,0.1052 0.17225,0.54701 0.44452,0.70784 0.44883,0.26513 1.01515,0.22058 1.391,-0.10943 0.32106,-0.28189 0.40575,-0.2961 0.94911,-0.15928 0.45421,0.11437 0.47766,0.24777 0.12833,0.73 -0.49639,0.68525 -1.73293,1.03307 -2.63853,0.74219 z m 1.6794,-3.06784 c 0.049,-0.14762 -0.3691,-0.51046 -0.66239,-0.57487 -0.35433,-0.0778 -0.68659,0.0164 -1.01015,0.28655 -0.43817,0.3658 -0.29882,0.44402 0.74151,0.41621 0.61514,-0.0164 0.90737,-0.0566 0.93103,-0.12789 z m 3.52111,3.04292 c -1.13204,-0.40512 -1.69822,-1.28192 -1.61825,-2.50608 0.0459,-0.70274 0.24244,-1.13911 0.7151,-1.58775 0.47276,-0.44873 0.83735,-0.60294 1.532,-0.648 1.00583,-0.0652 1.81154,0.35021 2.25265,1.16153 0.28794,0.52959 0.24991,0.59951 -0.43468,0.79927 l -0.44603,0.13016 -0.20661,-0.32729 c -0.28394,-0.44979 -0.52272,-0.59589 -0.97333,-0.59551 -0.98084,8.1e-4 -1.54965,0.97182 -1.08728,1.85608 0.4618,0.88316 1.60532,0.90764 2.11414,0.0453 0.11671,-0.19782 0.22243,-0.28472 0.31419,-0.25827 0.0761,0.0219 0.2986,0.0813 0.49455,0.13187 0.19594,0.0506 0.37889,0.12863 0.40656,0.1734 0.0943,0.15262 -0.26918,0.80225 -0.63161,1.12873 -0.45764,0.41226 -0.81324,0.5602 -1.47103,0.612 -0.37926,0.0299 -0.64301,-0.002 -0.96037,-0.1154 z m 5.47828,0.0569 c -0.43215,-0.13124 -0.74755,-0.38588 -0.93634,-0.75594 -0.14223,-0.27879 -0.16742,-0.4996 -0.16742,-1.46761 0,-0.6267 -0.0231,-1.19972 -0.0514,-1.27338 -0.0371,-0.0966 -0.16567,-0.13392 -0.46183,-0.13392 -0.40529,0 -0.41117,-0.004 -0.46844,-0.30917 -0.0319,-0.17004 -0.0234,-0.40817 0.0189,-0.52916 0.0661,-0.18901 0.13329,-0.22364 0.47704,-0.24579 0.45144,-0.0291 0.46809,-0.0575 0.50607,-0.86321 l 0.0219,-0.46567 h 0.55034 0.55033 l 0.0423,0.635 0.0423,0.635 0.71966,0.0423 0.71967,0.0423 v 0.508 0.508 l -0.71967,0.0423 -0.71966,0.0423 -0.0255,0.84667 c -0.0327,1.08336 0.0204,1.36199 0.29352,1.54095 0.20466,0.1341 0.24305,0.13368 0.63889,-0.007 0.23163,-0.0823 0.43868,-0.13204 0.46011,-0.11061 0.10685,0.10684 0.3485,0.88475 0.29881,0.9619 -0.20661,0.32083 -1.23358,0.5254 -1.7897,0.35652 z m -17.33996,-2.37828 0.02253,-2.3109 0.536558,-0.0254 c 0.308192,-0.0146 0.584922,0.0147 0.650182,0.0689 0.0844,0.0701 0.21374,0.0603 0.50356,-0.0381 0.4976,-0.16894 1.23189,-0.16955 1.63443,-0.001 0.40132,0.16768 0.66691,0.41754 0.89568,0.84262 0.16628,0.30897 0.18467,0.48935 0.20971,2.05701 l 0.0275,1.71833 -0.62011,-0.025 -0.62012,-0.025 -0.0423,-1.48167 c -0.0436,-1.52465 -0.0971,-1.77273 -0.4197,-1.94539 -0.27529,-0.14733 -0.80778,-0.10209 -1.05108,0.0893 -0.39289,0.30904 -0.43192,0.46801 -0.47655,1.94077 l -0.0423,1.397 -0.6152,0.0249 -0.615208,0.0249 z m 22.37588,1.3936 c -0.72614,-0.0446 -0.80568,-0.14314 -0.80568,-0.99793 0,-0.90207 0.0264,-0.92456 0.99445,-0.84675 1.06526,0.0856 1.12222,0.13728 1.12222,1.01782 0,0.78854 -0.0766,0.90687 -0.56594,0.87401 -0.13112,-0.009 -0.46639,-0.03 -0.74505,-0.0472 z m 5.37499,-3.01086 -0.381,-0.10098 v -0.71966 -0.71967 l 0.40373,0.0207 c 0.22206,0.0114 0.53801,0.0768 0.70212,0.14535 l 0.29837,0.12467 -0.0248,0.65898 -0.0248,0.65898 -0.29633,0.0163 c -0.16298,0.009 -0.46778,-0.0291 -0.67733,-0.0847 z"
         id="path25"
         inkscape:connector-curvature="0" />
      <path
         style="fill:#1f52a1;stroke-width:0.08466667"
         d="m 127.00029,143.0213 c -0.12367,-0.23108 0.008,-0.50189 0.27127,-0.55773 0.10344,-0.022 0.48747,-0.0519 0.85342,-0.0666 1.00272,-0.0403 0.98564,-0.002 0.98564,-2.19473 0,-2.26701 0.12378,-2.10104 -1.72462,-2.31249 l -1.33761,-0.15301 -0.18338,0.18316 c -0.1732,0.173 -0.18574,0.28064 -0.22572,1.93787 l -0.0423,1.7547 -0.40216,0.0258 -0.40217,0.0258 v -1.88979 c 0,-2.10721 0.0475,-2.32245 0.58164,-2.63611 0.33884,-0.19897 0.75594,-0.19391 2.2498,0.0273 1.32239,0.19579 1.60681,0.31787 1.88964,0.81107 0.18605,0.32445 0.19087,0.39098 0.16938,2.3388 -0.0207,1.87297 -0.0336,2.02056 -0.19692,2.24367 -0.27457,0.37513 -0.67074,0.52278 -1.57272,0.58615 -0.77689,0.0546 -0.82085,0.0486 -0.91315,-0.12383 z m -42.372248,-2.76986 c -0.614241,-0.19667 -1.267419,-0.88019 -1.453807,-1.52134 -0.335153,-1.15289 0.176944,-2.38213 1.19823,-2.87624 0.4026,-0.19479 1.307893,-0.26151 1.789284,-0.13189 0.464608,0.12511 1.03281,0.56531 1.269827,0.98376 0.286663,0.50612 0.257001,0.58521 -0.27498,0.73328 l -0.467358,0.13009 -0.233485,-0.34765 c -0.285697,-0.4254 -0.534124,-0.55911 -1.041779,-0.56074 -0.721861,-0.002 -1.260947,0.57071 -1.261222,1.34062 -2.54e-4,0.70592 0.408064,1.20746 1.087535,1.33584 0.547902,0.10352 1.041321,-0.16254 1.41,-0.7603 0.07494,-0.1215 0.133296,-0.12465 0.508,-0.0274 0.533807,0.1386 0.571531,0.30556 0.194374,0.86028 -0.546905,0.80439 -1.714496,1.16506 -2.724619,0.84164 z m 5.434583,0.0192 c -1.172195,-0.32835 -1.869567,-1.36469 -1.72813,-2.56811 0.151399,-1.28816 1.265029,-2.14796 2.63922,-2.03765 0.96291,0.0773 1.74985,0.66944 2.036473,1.53238 0.178659,0.53789 0.124119,1.40666 -0.118084,1.88097 -0.210464,0.41215 -0.747941,0.91651 -1.160312,1.0888 -0.442352,0.18483 -1.209282,0.23244 -1.669167,0.10361 z m 1.393089,-1.11595 c 0.760793,-0.51697 0.831849,-1.57063 0.147605,-2.1888 -0.447087,-0.40392 -0.895044,-0.46985 -1.416165,-0.20845 -0.479644,0.24061 -0.697735,0.52301 -0.759497,0.98348 -0.07031,0.52417 0.03164,0.89044 0.333897,1.1996 0.335637,0.34329 0.507043,0.41603 0.996579,0.4229 0.275908,0.004 0.47032,-0.0543 0.697581,-0.20873 z m 14.617876,1.09857 c -0.53496,-0.1648 -1.11123,-0.69391 -1.34331,-1.23339 -0.157,-0.36498 -0.18383,-0.55673 -0.15739,-1.12503 0.0363,-0.77946 0.18378,-1.15255 0.63351,-1.60228 0.42069,-0.42068 0.827,-0.59312 1.49316,-0.63366 1.30542,-0.0795 2.26015,0.75605 2.40072,2.1009 l 0.0531,0.50832 -1.64189,10e-4 c -0.90305,7.1e-4 -1.69766,0.0366 -1.7658,0.0797 -0.1077,0.0681 -0.10507,0.11785 0.0201,0.38028 0.19499,0.40889 0.59408,0.63871 1.10984,0.63911 0.40536,3.1e-4 0.98366,-0.25244 0.98366,-0.42992 0,-0.10283 0.3052,-0.0979 0.6985,0.0114 0.42286,0.11743 0.40586,0.27011 -0.0847,0.76025 -0.6209,0.6204 -1.50153,0.81972 -2.39953,0.5431 z m 1.75533,-2.87479 c 0.14557,-0.37936 -0.59208,-0.85645 -1.17256,-0.75838 -0.34671,0.0586 -0.91374,0.47813 -0.91374,0.67608 0,0.17079 0.13978,0.19606 1.12449,0.20327 0.73967,0.005 0.92212,-0.0175 0.96181,-0.12097 z m 3.52915,2.88444 c -1.12493,-0.35174 -1.69804,-1.21864 -1.6178,-2.44713 0.0462,-0.70797 0.25504,-1.17644 0.6975,-1.56493 0.47179,-0.41423 0.80114,-0.54683 1.46518,-0.5899 0.74045,-0.048 1.23741,0.11263 1.73281,0.5602 0.36215,0.32718 0.71364,0.92889 0.60155,1.02979 -0.0581,0.0523 -0.8453,0.33985 -0.93038,0.33985 -0.014,0 -0.10288,-0.15162 -0.19742,-0.33693 -0.23044,-0.45169 -0.57842,-0.62365 -1.1638,-0.57511 -0.38435,0.0319 -0.50542,0.0855 -0.75403,0.33413 -0.9458,0.9458 -0.18993,2.51333 1.1174,2.31728 0.33668,-0.0505 0.88118,-0.43422 0.8855,-0.62405 6.8e-4,-0.0314 0.0332,-0.10731 0.0722,-0.16881 0.0581,-0.0916 0.15786,-0.0865 0.55252,0.0282 0.4308,0.12524 0.47564,0.15937 0.42507,0.32349 -0.2668,0.86585 -1.20728,1.50628 -2.18828,1.49015 -0.18946,-0.003 -0.50357,-0.0554 -0.69802,-0.11621 z m 5.34888,0.01 c -0.47573,-0.18616 -0.63431,-0.31647 -0.81987,-0.67372 -0.16165,-0.31123 -0.18827,-0.51333 -0.20761,-1.5761 -0.0122,-0.67051 -0.0527,-1.24913 -0.09,-1.28583 -0.0373,-0.0367 -0.23928,-0.0787 -0.44883,-0.0932 l -0.381,-0.0265 v -0.42333 -0.42334 l 0.40166,-0.0258 c 0.48734,-0.0313 0.61387,-0.20427 0.53485,-0.7312 -0.0849,-0.56639 -0.0212,-0.64002 0.55422,-0.64002 h 0.49894 l 0.001,0.5715 c 6.8e-4,0.31433 0.0305,0.61738 0.0661,0.67344 0.0392,0.0617 0.3313,0.11184 0.73954,0.127 l 0.67474,0.0251 v 0.42334 0.42333 l -0.63121,0.0252 c -0.34717,0.0139 -0.68055,0.0662 -0.74084,0.1162 -0.13205,0.1096 -0.15484,1.80291 -0.0287,2.13463 0.0445,0.11701 0.17797,0.27636 0.29663,0.35411 0.19779,0.1296 0.2489,0.13045 0.61397,0.0103 0.21903,-0.0721 0.42487,-0.11463 0.45744,-0.0945 0.0326,0.0201 0.1178,0.20853 0.1894,0.41866 0.1274,0.3739 0.12598,0.38481 -0.0664,0.51083 -0.44129,0.28915 -1.13707,0.36672 -1.61431,0.17997 z M 99.477287,137.9718 v -2.24367 h 0.497633 c 0.32647,0 0.53193,0.0413 0.59736,0.12016 0.0854,0.10285 0.1555,0.0955 0.48677,-0.051 0.30263,-0.13387 0.52025,-0.16448 0.99778,-0.14037 0.78881,0.0398 1.19839,0.29072 1.51638,0.92886 0.21598,0.43341 0.22208,0.48932 0.22208,2.03768 v 1.59204 h -0.54499 -0.54499 l -0.0265,-1.53113 -0.0265,-1.53114 -0.27651,-0.24686 c -0.5201,-0.46436 -1.30741,-0.27513 -1.63029,0.39185 -0.14439,0.29826 -0.16754,0.52372 -0.16754,1.63168 v 1.2856 h -0.55033 -0.550333 z m 27.772903,-1.64098 c -0.18864,-0.0336 -0.32863,-0.1218 -0.39038,-0.24601 -0.0994,-0.19987 -0.1063,-1.07579 -0.009,-1.17281 0.0742,-0.0742 0.9854,0.11417 1.12906,0.2334 0.0765,0.0635 0.11503,0.29039 0.11503,0.67776 v 0.5823 l -0.27517,-0.0111 c -0.15134,-0.006 -0.40751,-0.0347 -0.56926,-0.0635 z"
         id="path23"
         inkscape:connector-curvature="0" />
    </g>
  </g>
</svg>
